<svg width="71" height="30" viewBox="0 0 71 30" version="1.1" xmlns="http://www.w3.org/2000/svg" xmlns:xlink="http://www.w3.org/1999/xlink">
<g id="Canvas" transform="translate(-6506 -175)">
<g id="NUI (Stroke)">
<use xlink:href="#path0_fill" transform="matrix(1 2.67189e-24 -2.67189e-24 1 6506 175)"/>
</g>
</g>
<defs>
<path id="path0_fill" fill-rule="evenodd" d="M 18.4055 15.8019L 5.70305 0L 0.743455 0L 0 0L 0 0.75L 0 28.8755L 0 29.6255L 0.743455 29.6255L 6.54146 29.6255L 7.28492 29.6255L 7.28492 28.8755L 7.28492 14.0099L 7.28492 12.8155L 8.02837 13.745L 20.7308 29.6255L 25.7737 29.6255L 26.5171 29.6255L 26.5171 28.8755L 26.5171 0.75L 26.5171 0L 25.7737 0L 19.8924 0L 19.1489 0L 19.1489 0.75L 19.1489 15.536L 19.1489 16.7268L 18.4055 15.8019ZM 19.8924 0.75L 19.8924 16.7268L 19.8924 18.8424L 18.5715 17.1992L 5.34876 0.75L 0.743455 0.75L 0.743455 28.8755L 6.54146 28.8755L 6.54146 12.8155L 6.54146 10.6917L 7.8635 12.3446L 21.0862 28.8755L 25.7737 28.8755L 25.7737 0.75L 19.8924 0.75ZM 40.7799 22.344C 39.8364 21.2067 39.3646 19.57 39.3646 17.4341L 39.3646 0.75L 39.3646 0L 38.6211 0L 32.4901 0L 31.7466 0L 31.7466 0.75L 31.7466 17.1429C 31.7466 21.3592 32.8567 24.5631 35.0769 26.7545C 37.2971 28.9182 40.5718 30 44.9011 30C 49.1472 30 52.3942 28.9043 54.6421 26.7129C 56.9178 24.4938 58.0556 21.3037 58.0556 17.1429L 58.0556 0.75L 58.0556 0L 57.3122 0L 51.0979 0L 50.3544 0L 50.3544 0.75L 50.3544 17.4341C 50.3544 19.5423 49.8826 21.1789 48.9391 22.344C 47.9955 23.4813 46.6495 24.0499 44.9011 24.0499C 43.125 24.0499 41.7513 23.4813 40.7799 22.344ZM 51.0979 0.75L 51.0979 17.4341C 51.0979 19.6468 50.6031 21.4747 49.5148 22.8185L 49.512 22.8219L 49.5092 22.8253C 48.3972 24.1656 46.8235 24.7999 44.9011 24.7999C 42.9546 24.7999 41.3568 24.1684 40.2167 22.8335L 40.2132 22.8294L 40.2098 22.8253C 39.114 21.5045 38.6211 19.6702 38.6211 17.4341L 38.6211 0.75L 32.4901 0.75L 32.4901 17.1429C 32.4901 21.2284 33.563 24.2099 35.5951 26.2167C 37.629 28.1979 40.6874 29.25 44.9011 29.25C 49.0249 29.25 52.0597 28.1874 54.1255 26.1736C 56.2159 24.1351 57.3122 21.1649 57.3122 17.1429L 57.3122 0.75L 51.0979 0.75ZM 70.2565 0.75L 63.9174 0.75L 63.9174 28.8755L 70.2565 28.8755L 70.2565 0.75ZM 63.9174 0L 63.1739 0L 63.1739 0.75L 63.1739 28.8755L 63.1739 29.6255L 63.9174 29.6255L 70.2565 29.6255L 71 29.6255L 71 28.8755L 71 0.75L 71 0L 70.2565 0L 63.9174 0Z"/>
</defs>
</svg>
