<svg width="192" height="81" viewBox="0 0 192 81" xmlns="http://www.w3.org/2000/svg" xmlns:xlink="http://www.w3.org/1999/xlink"><title>NUI</title><desc>Created using Figma</desc><g transform="translate(-12720 -1424)"><mask id="d"><use xlink:href="#a" fill="#fff" transform="translate(12720.5 1424.5)"/><use xlink:href="#b" fill="#fff" transform="translate(12720.5 1424.5)"/><use xlink:href="#c" fill="#fff" transform="translate(12720.5 1424.5)"/></mask><g mask="url(#d)"><use xlink:href="#e" transform="translate(12720.5 1424.5)"/></g></g><defs><path id="a" d="M71.335 0v79.001H55.769L19.597 34.175V79H0V0h15.342l36.171 44.605V0h19.822z"/><path id="b" d="M120.79 80c-11.646 0-20.456-2.885-26.428-8.655-5.973-5.843-8.96-14.387-8.96-25.63V0h20.494v46.491c0 5.696 1.269 10.06 3.808 13.093 2.613 3.033 6.308 4.55 11.086 4.55 4.704 0 8.325-1.517 10.863-4.55 2.538-3.107 3.807-7.471 3.807-13.093V0h20.718v45.714c0 11.096-3.061 19.603-9.183 25.52C140.948 77.078 132.213 80 120.79 80z"/><path id="c" d="M169.947 0H191v79.001h-21.053V0z"/><path id="e" d="M71.335 0h2v-2h-2v2zm0 79.001v2h2v-2h-2zm-15.566 0l-1.557 1.256.6.744h.957v-2zM19.597 34.175l1.557-1.256-3.556-4.408v5.664h2zm0 44.826v2h2v-2h-2zM0 79.001h-2v2h2v-2zM0 0v-2h-2v2h2zm15.342 0l1.553-1.26-.6-.74h-.953v2zm36.171 44.605l-1.553 1.26 3.553 4.381v-5.641h-2zm0-44.605v-2h-2v2h2zm42.849 71.345l-1.399 1.43.01.009 1.389-1.439zM85.402 0v-2h-2v2h2zm20.494 0h2v-2h-2v2zm3.808 59.584l-1.534 1.284.009.01.01.011 1.515-1.305zm21.949 0l1.534 1.284.007-.01.008-.009-1.549-1.265zM135.46 0v-2h-2v2h2zm20.718 0h2v-2h-2v2zm-9.183 71.234l1.39 1.439-1.39-1.439zM169.947 0v-2h-2v2h2zM191 0h2v-2h-2v2zm0 79.001v2h2v-2h-2zm-21.053 0h-2v2h2v-2zM69.335 0v79.001h4V0h-4zm2 77.001H55.769v4h15.566v-4zm-14.01.744L21.154 32.92 18.04 35.43l36.171 44.826 3.113-2.512zm-39.727-43.57V79h4V34.175h-4zm2 42.826H0v4h19.598v-4zM2 79.001V0h-4v79.001h4zM0 2h15.342v-4H0v4zm13.789-.74l36.17 44.604 3.108-2.519L16.895-1.26 13.79 1.26zm39.724 43.345V0h-4v44.605h4zM51.513 2h19.822v-4H51.513v4zm69.277 76c-11.338 0-19.567-2.807-25.039-8.093l-2.779 2.877C99.446 79.037 108.836 82 120.79 82v-4zm-25.03-8.084c-5.469-5.352-8.357-13.304-8.357-24.202h-4c0 11.59 3.084 20.725 9.56 27.06l2.797-2.858zm-8.357-24.202V0h-4v45.714h4zM85.403 2h20.493v-4H85.403v4zm18.493-2v46.491h4V0h-4zm0 46.491c0 5.963 1.326 10.854 4.274 14.377l3.067-2.568c-2.128-2.543-3.341-6.38-3.341-11.809h-4zm4.293 14.398c3.066 3.56 7.365 5.244 12.601 5.244v-4c-4.319 0-7.412-1.349-9.571-3.855l-3.03 2.611zm12.601 5.244c5.172 0 9.405-1.691 12.397-5.265l-3.068-2.568c-2.085 2.492-5.093 3.833-9.329 3.833v4zm12.412-5.284c2.928-3.583 4.258-8.457 4.258-14.358h-4c0 5.343-1.207 9.197-3.356 11.828l3.098 2.53zm4.258-14.358V0h-4v46.491h4zM135.46 2h20.718v-4H135.46v4zm18.718-2v45.714h4V0h-4zm0 45.714c0 10.726-2.949 18.646-8.573 24.082l2.78 2.876c6.62-6.399 9.793-15.492 9.793-26.958h-4zm-8.573 24.082C140.048 75.166 131.884 78 120.79 78v4c11.752 0 21.057-3.01 27.595-9.327l-2.78-2.877zM169.947 2H191v-4h-21.053v4zM189 0v79.001h4V0h-4zm2 77.001h-21.053v4H191v-4zm-19.053 2V0h-4v79.001h4z"/></defs></svg>